<?xml version="1.0" encoding="UTF-8" standalone="no"?>
<!-- Created with Inkscape (http://www.inkscape.org/) -->

<svg
   xmlns:dc="http://purl.org/dc/elements/1.1/"
   xmlns:cc="http://creativecommons.org/ns#"
   xmlns:rdf="http://www.w3.org/1999/02/22-rdf-syntax-ns#"
   xmlns:svg="http://www.w3.org/2000/svg"
   xmlns="http://www.w3.org/2000/svg"
   xmlns:sodipodi="http://sodipodi.sourceforge.net/DTD/sodipodi-0.dtd"
   xmlns:inkscape="http://www.inkscape.org/namespaces/inkscape"
   width="210mm"
   height="297mm"
   viewBox="0 0 744.09448819 1052.3622047"
   id="svg2"
   version="1.1"
   inkscape:version="0.91 r13725"
   sodipodi:docname="hangman.svg">
  <defs
     id="defs4" />
  <sodipodi:namedview
     id="base"
     pagecolor="#ffffff"
     bordercolor="#666666"
     borderopacity="1.0"
     inkscape:pageopacity="0.0"
     inkscape:pageshadow="2"
     inkscape:zoom="0.98994949"
     inkscape:cx="344.68425"
     inkscape:cy="478.06803"
     inkscape:document-units="px"
     inkscape:current-layer="layer1"
     showgrid="false"
     showguides="false"
     inkscape:window-width="1918"
     inkscape:window-height="1078"
     inkscape:window-x="0"
     inkscape:window-y="0"
     inkscape:window-maximized="0" />
  <metadata
     id="metadata7">
    <rdf:RDF>
      <cc:Work
         rdf:about="">
        <dc:format>image/svg+xml</dc:format>
        <dc:type
           rdf:resource="http://purl.org/dc/dcmitype/StillImage" />
        <dc:title></dc:title>
      </cc:Work>
    </rdf:RDF>
  </metadata>
  <g
     inkscape:label="Layer 1"
     inkscape:groupmode="layer"
     id="layer1">
    <rect
       style="opacity:1;fill:#ad296e;fill-opacity:1;stroke:none;stroke-width:1.63199997;stroke-linecap:butt;stroke-linejoin:miter;stroke-miterlimit:4;stroke-dasharray:none;stroke-opacity:1"
       id="rect4136"
       width="696.84125"
       height="612.73096"
       x="160.60915"
       y="235.94234"
       inkscape:export-xdpi="90.099998"
       inkscape:export-ydpi="90.099998" />
    <path
       style="fill:none;fill-rule:evenodd;stroke:#ffffff;stroke-width:5;stroke-linecap:butt;stroke-linejoin:miter;stroke-miterlimit:4;stroke-dasharray:none;stroke-opacity:1"
       d="m 260.61936,781.64132 c 1.24625,-3.36983 1.01015,-6.64177 1.01015,-10.10152 0,-0.67344 -0.13207,-1.35995 0,-2.02031 0.20883,-1.04412 0.80133,-1.98634 1.01016,-3.03046 0.13207,-0.66035 0,-1.34687 0,-2.0203 0,-1.01016 0,-2.02031 0,-3.03046 0,-1.19865 -0.19608,-7.10085 0,-8.08122 0.14766,-0.7383 0.82754,-1.28986 1.01015,-2.02031 0.16333,-0.65332 0,-1.34687 0,-2.0203 0,-2.35702 0,-4.71405 0,-7.07107 0,-0.67343 0,-1.34687 0,-2.0203 0,-0.67344 -0.16333,-1.36698 0,-2.02031 0.18261,-0.73044 0.82754,-1.28986 1.01015,-2.0203 0.245,-0.98 -0.31944,-2.07215 0,-3.03046 0.2381,-0.71429 0.82754,-1.28986 1.01015,-2.02031 0.32667,-1.30665 -0.32666,-2.73395 0,-4.04061 0.36522,-1.46088 1.72499,-2.564 2.02031,-4.04061 0.19811,-0.99053 -0.245,-2.05046 0,-3.03045 0.11549,-0.46198 0.74601,-0.61394 1.01015,-1.01016 0.41765,-0.62647 0.82754,-1.28986 1.01015,-2.0203 0.16334,-0.65333 -0.21296,-1.38143 0,-2.02031 0.15059,-0.45175 0.74601,-0.61394 1.01016,-1.01015 0.41764,-0.62647 0.5925,-1.39384 1.01015,-2.02031 0.26414,-0.39621 0.74601,-0.61393 1.01015,-1.01015 0.41765,-0.62647 0.82754,-1.28986 1.01015,-2.0203 0.16334,-0.65333 -0.37355,-1.45998 0,-2.02031 0.41765,-0.62647 1.48791,-0.47775 2.02031,-1.01015 5.16226,-5.16226 -4.23555,1.40889 3.03046,-4.04061 0.60233,-0.45175 1.41796,-0.5584 2.0203,-1.01015 1.52381,-1.14286 2.5168,-2.89776 4.04061,-4.04061 0.60234,-0.45176 1.41797,-0.5584 2.02031,-1.01016 1.52381,-1.14285 2.5168,-2.89775 4.04061,-4.04061 0.60234,-0.45175 1.34687,-0.67343 2.0203,-1.01015 2.09822,-1.04911 3.01914,-1.40515 5.05076,-3.03046 4.14815,-3.31851 -0.39026,-0.93145 5.05077,-4.04061 6.70051,-3.82886 1.40464,-0.60199 7.07107,-3.03045 1.38409,-0.59319 2.69374,-1.34687 4.04061,-2.02031 1.68358,-0.67343 3.37696,-1.32289 5.05076,-2.0203 0.0411,-0.0171 14.13698,-6.0592 14.14213,-6.06092 0.009,-0.003 16.11978,-4.02923 16.16244,-4.04061 5.5985,-1.49293 9.38501,-2.88715 15.15229,-4.04061 2.33472,-0.46694 4.73635,-0.54321 7.07107,-1.01015 8.15892,-1.63179 16.08474,-4.42913 24.24366,-6.06092 2.33472,-0.46694 4.73635,-0.54321 7.07107,-1.01015 0.0944,-0.0189 16.11826,-4.0343 16.16244,-4.04061 2,-0.28571 4.0641,0.3072 6.06092,0 2.42283,-0.37274 4.64823,-1.64756 7.07106,-2.02031 1.99682,-0.3072 4.04759,0.16778 6.06092,0 2.0411,-0.17009 4.02115,-0.82472 6.06091,-1.01015 1.67668,-0.15242 3.36718,0 5.05077,0 2.0203,0 4.04061,0 6.06091,0 5.05076,0 10.10153,0 15.15229,0 7.40779,0 14.81557,0 22.22336,0 2.35702,0 4.71926,-0.15678 7.07106,0 2.70869,0.18058 5.37452,0.80195 8.08122,1.01015 1.67863,0.12913 3.41029,-0.37857 5.05077,0 2.80324,0.64691 5.30144,2.28919 8.08122,3.03046 2.30056,0.61348 4.74296,0.51128 7.07107,1.01015 7.02944,1.50631 8.07111,2.69038 15.15228,5.05077 2.32555,0.77518 4.7025,1.38868 7.07107,2.0203 2.68289,0.71544 5.52908,0.92653 8.08122,2.02031 2.23178,0.95647 4.04061,2.69374 6.06092,4.04061 4.50197,3.00132 7.14208,4.50858 11.11167,8.08122 1.76975,1.59277 3.36718,3.36717 5.05077,5.05076 1.34687,1.34687 2.69374,2.69374 4.04061,4.04061 1.34687,1.34687 2.42537,3.03109 4.04061,4.04061 1.17729,0.73581 2.85013,0.29587 4.04061,1.01015 0.64562,0.38738 0.5925,1.39384 1.01015,2.02031 0.26414,0.39621 0.67344,0.67343 1.01015,1.01015 0.67344,1.01015 1.39568,1.98942 2.02031,3.03046 0.77475,1.29125 1.18501,2.78767 2.0203,4.04061 0.26415,0.39621 0.85957,0.5584 1.01016,1.01015 0.21295,0.63888 -0.21296,1.38143 0,2.02031 0.15058,0.45175 0.85956,0.5584 1.01015,1.01015 0.21296,0.63888 -0.16333,1.36698 0,2.0203 0.36522,1.46089 1.65508,2.57973 2.0203,4.04061 0.16334,0.65333 -0.16333,1.36698 0,2.02031 0.18261,0.73044 0.82755,1.28986 1.01016,2.0203 0.32666,1.30666 -0.32667,2.73396 0,4.04062 0.18261,0.73044 0.82754,1.28986 1.01015,2.0203 0.245,0.97999 -0.31944,2.07214 0,3.03046 0.23809,0.71428 0.82754,1.28986 1.01015,2.0203 0.16333,0.65333 0,1.34687 0,2.02031 0,2.0203 0,4.04061 0,6.06091 0,5.38748 0,10.77496 0,16.16244 0,0.39498 -0.14523,6.63539 0,7.07107 0.15059,0.45176 0.79719,0.58424 1.01015,1.01015 0.15059,0.30117 0,0.67344 0,1.01016 0,0.857 -0.16755,5.39071 0,6.06091 0.18261,0.73045 0.77206,1.30602 1.01016,2.02031 0.28221,0.84663 -0.33473,3.37115 0,4.04061 0.21295,0.42592 0.79719,0.58423 1.01015,1.01015 0.30117,0.60234 -0.30117,1.41797 0,2.02031 0.21296,0.42591 0.79719,0.58423 1.01015,1.01015 0.30117,0.60234 -0.21296,1.38143 0,2.0203 2.8616,5.72321 -0.37646,-1.50584 1.01015,4.04061 0.18261,0.73045 0.77206,1.30602 1.01016,2.02031 0.18997,0.56992 0,2.36668 0,3.03046"
       id="path4210"
       inkscape:connector-curvature="0"
       inkscape:export-xdpi="90.099998"
       inkscape:export-ydpi="90.099998" />
    <path
       style="fill:none;fill-rule:evenodd;stroke:#ffffff;stroke-width:5;stroke-linecap:butt;stroke-linejoin:miter;stroke-opacity:1;stroke-miterlimit:4;stroke-dasharray:none"
       d="m 413.15239,649.31134 c 0,-10.10153 0,-20.20305 0,-30.30458 0,-2.0203 0,-4.04061 0,-6.06091 0,-0.67344 0,-1.34687 0,-2.02031 0,-0.67343 0.16333,-1.36697 0,-2.0203 -1.16074,-4.64295 -1.01015,-0.22919 -1.01015,-3.03046 0,-5.11899 -0.30117,1.20468 1.01015,-4.04061 0.16333,-0.65333 0,-1.34687 0,-2.02031 0,-0.67343 0,-1.34687 0,-2.0203 0,-0.67344 0,-1.34687 0,-2.02031 0,-0.67343 0.16333,-1.36697 0,-2.0203 -0.18261,-0.73044 -0.86249,-1.282 -1.01015,-2.02031 -0.19811,-0.99053 0,-2.0203 0,-3.03045 0,-2.35703 0,-4.71405 0,-7.07107 0,-5.38748 0,-10.77496 0,-16.16244 0,-1.68359 0,-3.36718 0,-5.05076 0,-0.67344 0.16333,-1.36698 0,-2.02031 -0.18261,-0.73044 -0.82754,-1.28986 -1.01015,-2.02031 -0.16334,-0.65332 0,-1.34687 0,-2.0203 0,-0.67344 0,-1.34687 0,-2.02031 0,-3.70389 0,-7.40778 0,-11.11167 0,-4.71405 0,-9.42809 0,-14.14214 0,-1.68359 -0.27678,-3.39008 0,-5.05076 0.17505,-1.05031 0.8351,-1.98015 1.01015,-3.03046 0.16607,-0.99641 0,-2.0203 0,-3.03046 0,-1.34687 0,-2.69374 0,-4.04061 0,-5.38748 0,-10.77496 0,-16.16244 0,-1.01015 0,-2.0203 0,-3.03046 0,-1.34687 -0.19048,-2.70727 0,-4.04061 0.15058,-1.05409 0.8351,-1.98015 1.01015,-3.03045 0.16607,-0.99641 -0.14286,-2.03046 0,-3.03046 0.19634,-1.37437 0.85684,-2.66078 1.01015,-4.04061 0.029,-0.26113 -0.0294,-9.96925 0,-10.10153 0.32667,-1.46998 1.65509,-2.57972 2.02031,-4.04061 0.32666,-1.30665 0,-2.69374 0,-4.04061 0,-3.70389 0,-7.40778 0,-11.11167 0,-4.37733 0,-8.75466 0,-13.13199 0,-1.68359 0,-3.36717 0,-5.05076 0,-0.67344 0.13207,-1.35995 0,-2.02031 -0.20882,-1.04411 -0.80133,-1.98634 -1.01015,-3.03045 -0.3178,-1.58899 0.39284,-3.47938 0,-5.05077 -0.18261,-0.73044 -0.82755,-1.28986 -1.01016,-2.0203 -0.16333,-0.65333 0,-1.34687 0,-2.02031 0,-2.35702 0,-4.71404 0,-7.07106 0,-6.06092 0,-12.12183 0,-18.18275 0,-14.47885 0,-28.95771 0,-43.43656 0,-4.37733 0,-8.75465 0,-13.13198 0,-0.7026 -0.18265,-4.68546 0,-5.05077 1.24825,-2.49649 1.01016,0.34869 1.01016,-2.0203 4.59113,-0.35487 8.54314,-2.64805 13.13198,-3.03046 2.34888,-0.19574 4.73773,0.33334 7.07107,0 2.4267,-0.34667 4.64436,-1.67363 7.07106,-2.0203 2.33334,-0.33334 4.73473,0.31151 7.07107,0 14.76436,-3.69109 1.35627,-1.03323 16.16244,-2.02031 2.37568,-0.15838 4.69539,-0.85177 7.07107,-1.01015 2.68778,-0.17919 5.38748,0 8.08122,0 3.36718,0 6.73435,0 10.10153,0 9.7648,0 19.52961,0 29.29442,0 7.7445,0 15.48901,0 23.23351,0 1.34687,0 2.69374,0 4.04061,0 1.34687,0 2.70414,-0.16706 4.04061,0 1.3776,0.1722 2.66301,0.83795 4.04061,1.01015 0.25957,0.0325 7.94932,-0.033 8.08122,0 1.46089,0.36522 2.57972,1.65509 4.04061,2.02031 1.30666,0.32666 2.69374,0 4.04061,0 1.01015,0 2.02031,0 3.03046,0 1.01015,0 2.03405,-0.16607 3.03046,0 1.0503,0.17505 1.98634,0.80133 3.03045,1.01015 0.66036,0.13207 1.35604,-0.11071 2.02031,0 1.36943,0.22824 2.66301,0.83795 4.04061,1.01015 12.37141,0 -2.98143,-0.42592 7.07107,1.01015 1.33333,0.19048 2.70727,-0.19047 4.04061,0 1.05409,0.15059 1.98015,0.83511 3.03045,1.01016 1.66069,0.27678 3.36718,0 5.05077,0 2.69374,0 5.38748,0 8.08122,0 0.86179,0 6.69574,0.18766 7.07107,0 0.42591,-0.21296 0.55839,-0.85957 1.01015,-1.01016 0.63887,-0.21295 1.34687,0 2.0203,0 0.33672,0 0.70899,0.15059 1.01016,0 0.42591,-0.21295 0.58423,-0.79719 1.01015,-1.01015 0.40052,-0.20026 2.82394,0.20651 3.03046,0 0.23809,-0.23809 -0.2381,-0.77206 0,-1.01015 0.23809,-0.2381 0.67343,0 1.01015,0 2.69374,0 5.38748,0 8.08122,0 1.01015,0 2.0203,0 3.03046,0 1.01015,0 2.03992,0.19811 3.03045,0 0.73831,-0.14766 1.28987,-0.82754 2.02031,-1.01015 0.83506,-0.20877 5.54756,0.25668 6.06091,0 0.42592,-0.21296 0.5584,-0.85957 1.01016,-1.01016 0.95831,-0.31943 2.0203,0 3.03045,0 2.69374,0 5.38748,0 8.08122,0 0.37097,0 3.99997,0.0407 4.04062,0 0.23809,-0.23809 -0.2381,-0.77205 0,-1.01015 0.0458,-0.0458 4.57447,0 5.05076,0 2.0203,0 4.04061,0 6.06091,0 0.33672,0 0.67344,0 1.01016,0 0.33671,0 1.01015,-0.33672 1.01015,0 0,0.33672 -0.67344,0 -1.01015,0"
       id="path4212"
       inkscape:connector-curvature="0"
       inkscape:export-xdpi="90.099998"
       inkscape:export-ydpi="90.099998" />
    <path
       style="fill:none;fill-rule:evenodd;stroke:#ffffff;stroke-width:5;stroke-linecap:butt;stroke-linejoin:miter;stroke-opacity:1;stroke-miterlimit:4;stroke-dasharray:none"
       d="m 419.21331,437.1793 c 0.67343,-1.34687 1.42712,-2.65651 2.0203,-4.04061 0.41944,-0.9787 0.53396,-2.07807 1.01015,-3.03045 0.21296,-0.42592 0.74601,-0.61394 1.01016,-1.01016 0.41764,-0.62647 0.5584,-1.41796 1.01015,-2.0203 0.57143,-0.76191 1.34687,-1.34687 2.0203,-2.02031 0.33672,-0.33671 0.85957,-0.55839 1.01016,-1.01015 0.21296,-0.63888 -0.30117,-1.41796 0,-2.0203 0.061,-0.12209 3.86285,-3.80361 4.04061,-4.04061 0.45175,-0.60234 0.5925,-1.39384 1.01015,-2.02031 0.79243,-1.18864 2.17331,-1.8876 3.03046,-3.03046 0.45175,-0.60234 0.5584,-1.41796 1.01015,-2.0203 1.14286,-1.52381 2.89775,-2.5168 4.04061,-4.04061 0.90351,-1.20468 1.1168,-2.83593 2.0203,-4.04061 0.57143,-0.76191 1.44888,-1.2584 2.02031,-2.02031 0.45175,-0.60234 0.5584,-1.41796 1.01015,-2.0203 0.57143,-0.76191 1.34687,-1.34687 2.02031,-2.02031 1.15257,-1.15257 4.10766,-3.7933 5.05076,-5.05076 0.45175,-0.60234 0.40781,-1.56855 1.01015,-2.02031 0.85184,-0.63887 2.17863,-0.37127 3.03046,-1.01015 0.60234,-0.45175 0.47776,-1.48791 1.01015,-2.0203 9.0536,-9.0536 -1.85906,4.78202 4.04061,-5.05077 0.49,-0.81666 1.44888,-1.2584 2.02031,-2.0203 0.45175,-0.60234 0.62278,-1.37468 1.01015,-2.02031 0.67344,-1.01015 1.34687,-2.0203 2.02031,-3.03045 0.33671,-0.33672 0.74601,-0.61394 1.01015,-1.01016 0.83529,-1.25294 1.18501,-2.78767 2.0203,-4.04061 0.26415,-0.39621 0.74601,-0.61393 1.01016,-1.01015 0.41764,-0.62647 0.5925,-1.39383 1.01015,-2.0203 0.52828,-0.79243 1.59439,-1.16847 2.0203,-2.02031 0.15059,-0.30117 -0.15058,-0.70898 0,-1.01015 0.21296,-0.42592 0.67344,-0.67344 1.01016,-1.01015 0.78901,-0.78902 2.44935,-2.1588 3.03045,-3.03046 0.41765,-0.62647 0.59251,-1.39384 1.01016,-2.02031 0.52828,-0.79243 1.59438,-1.16847 2.0203,-2.0203 0.15059,-0.30117 -0.23809,-0.77206 0,-1.01015 2.09004,-2.09005 -0.0817,3.19386 2.02031,-1.01016 0.30117,-0.60234 -0.30117,-1.41796 0,-2.0203 0.21296,-0.42592 0.74601,-0.61394 1.01015,-1.01015 0.41765,-0.62647 0.59251,-1.39384 1.01015,-2.02031 0.52829,-0.79243 1.71914,-1.1168 2.02031,-2.0203 0.21296,-0.63888 -0.21296,-1.38143 0,-2.02031 0.22801,-0.68402 2.64463,-2.25881 3.03045,-3.03046 0.15059,-0.30117 -0.15058,-0.70898 0,-1.01015 0.21296,-0.42592 0.7972,-0.58423 1.01016,-1.01015 0.15058,-0.30117 -0.15059,-0.70899 0,-1.01015 0.42591,-0.85184 1.49202,-1.22788 2.0203,-2.02031 0.41765,-0.62647 0.59251,-1.39384 1.01015,-2.02031 0.26415,-0.39621 0.7972,-0.58423 1.01016,-1.01015 0.15058,-0.30117 -0.2381,-0.77205 0,-1.01015 0.53239,-0.5324 1.48791,-0.47776 2.0203,-1.01015 0.2381,-0.2381 -0.23809,-0.77206 0,-1.01016 0.5324,-0.53239 1.48791,-0.47775 2.02031,-1.01015 0.23809,-0.23809 -0.2381,-0.77206 0,-1.01015 0.47619,-0.47619 1.54411,0.47619 2.0203,0 0.2381,-0.2381 -0.23809,-0.77206 0,-1.01015 0.2381,-0.2381 0.77206,0.23809 1.01016,0 0.23809,-0.2381 0,-0.67344 0,-1.01016 0.33671,0 0.77205,0.2381 1.01015,0 0.23809,-0.23809 -0.2381,-0.77205 0,-1.01015 0.23809,-0.23809 0.77205,0.2381 1.01015,0 0.2381,-0.23809 -0.2381,-0.77206 0,-1.01015 0.2381,-0.2381 0.77206,0.23809 1.01015,0 0.2381,-0.2381 -0.23809,-0.77206 0,-1.01015 0.2381,-0.2381 0.77206,0.23809 1.01016,0 0.23809,-0.2381 -0.2381,-0.77206 0,-1.01016 0.23809,-0.23809 0.77205,0.2381 1.01015,0 0.23809,-0.23809 -0.2381,-0.77205 0,-1.01015 0.23809,-0.23809 0.77206,0.2381 1.01015,0 1.34687,-1.34687 -1.68359,-1.01015 1.01015,-1.01015"
       id="path4214"
       inkscape:connector-curvature="0"
       inkscape:export-xdpi="90.099998"
       inkscape:export-ydpi="90.099998" />
    <path
       style="fill:none;fill-rule:evenodd;stroke:#ffffff;stroke-width:5;stroke-linecap:butt;stroke-linejoin:miter;stroke-opacity:1;stroke-miterlimit:4;stroke-dasharray:none"
       d="m 683.87327,322.02191 c 0,22.8968 0,45.79359 0,68.69038"
       id="path4216"
       inkscape:connector-curvature="0"
       inkscape:export-xdpi="90.099998"
       inkscape:export-ydpi="90.099998" />
    <path
       style="fill:none;fill-rule:evenodd;stroke:#ffffff;stroke-width:5;stroke-linecap:butt;stroke-linejoin:miter;stroke-opacity:1;stroke-miterlimit:4;stroke-dasharray:none"
       d="m 682.86312,394.7529 c -4.20993,0.27485 -6.13617,-3.47413 -10.10152,-4.04061 -1.33334,-0.19048 -2.70415,0.16706 -4.04061,0 -10.03764,-1.25471 2.67731,-0.95043 -9.09138,-2.02031 -2.01201,-0.18291 -4.05621,0.25059 -6.06091,0 -0.74711,-0.0934 -1.28987,-0.82754 -2.02031,-1.01015 -0.65333,-0.16333 -1.34687,0 -2.0203,0 -1.34687,0 -2.69374,0 -4.04061,0 -1.35373,0 -6.12119,-0.18998 -7.07107,0 -0.7383,0.14766 -1.28986,0.82754 -2.02031,1.01015 -1.30665,0.32667 -2.76285,-0.42592 -4.04061,0 -0.45175,0.15059 -0.5584,0.85957 -1.01015,1.01015 -1.27775,0.42592 -2.83593,-0.60233 -4.04061,0 -0.30117,0.15059 0.30117,0.85957 0,1.01016 -1.20468,0.60234 -2.76286,-0.42592 -4.04061,0 -0.90351,0.30117 -1.22788,1.49202 -2.0203,2.0203 -2.32265,1.54843 -2.72812,0.47188 -5.05077,2.02031 -0.39621,0.26414 -0.67343,0.67343 -1.01015,1.01015 -0.67343,0.33672 -1.39383,0.59251 -2.0203,1.01015 -0.87167,0.58111 -2.24145,2.24144 -3.03046,3.03046 -0.33672,0.33672 -0.58424,0.79719 -1.01016,1.01015 -0.30116,0.15059 -0.85956,-0.30117 -1.01015,0 -0.30117,0.60234 0.21296,1.38143 0,2.02031 -0.22801,0.68402 -2.64463,2.25881 -3.03046,3.03046 -0.15058,0.30117 0.10648,0.69071 0,1.01015 -2.43898,7.31695 0.29124,-1.59262 -2.0203,3.03046 -0.15059,0.30117 0.15058,0.70898 0,1.01015 -0.21296,0.42592 -0.79719,0.58423 -1.01015,1.01015 -0.15059,0.30117 0.10648,0.69072 0,1.01015 -0.2381,0.71429 -0.77206,1.30602 -1.01016,2.02031 -0.31943,0.95831 0.245,2.05046 0,3.03046 -0.18261,0.73044 -0.82754,1.28986 -1.01015,2.0203 -0.20536,0.82146 0,5.00345 0,6.06092 0,2.69374 0,5.38748 0,8.08122 0,0.84589 -0.19204,4.28257 0,5.05076 0.18261,0.73044 0.82754,1.28986 1.01015,2.0203 0.245,0.98 -0.31943,2.07215 0,3.03046 0.47619,1.42857 1.54412,2.61204 2.02031,4.04061 0.10648,0.31944 -0.10648,0.69072 0,1.01016 0.23809,0.71428 0.82754,1.28986 1.01015,2.0203 0.16333,0.65333 -0.21296,1.38143 0,2.02031 0.15059,0.45175 0.74601,0.61393 1.01015,1.01015 1.12143,1.68214 1.86014,4.50049 3.03046,6.06091 1.0782,1.43761 4.1843,3.60666 5.05077,5.05077 2.03722,3.39537 -0.0239,2.32511 2.0203,5.05076 2.99892,3.99856 1.07472,0.0646 5.05076,4.04061 1.0648,1.06479 1.1168,2.83593 2.02031,4.04061 0.57143,0.7619 1.34687,1.34687 2.0203,2.0203 0.67344,0.67344 1.34687,1.34687 2.02031,2.02031 0.67343,0.67343 1.2584,1.44888 2.0203,2.0203 0.60234,0.45176 1.48791,0.47776 2.02031,1.01016 0.5324,0.53239 0.47775,1.4879 1.01015,2.0203 1.0648,1.0648 2.83593,1.1168 4.04061,2.02031 0.76191,0.57143 1.2584,1.44887 2.02031,2.0203 0.60233,0.45176 1.34687,0.67344 2.0203,1.01015 0.67344,0.33672 1.282,0.8625 2.02031,1.01016 0.99053,0.1981 2.03992,-0.19811 3.03045,0 1.47661,0.29532 2.57973,1.65508 4.04061,2.0203 0.65333,0.16333 1.36698,-0.16333 2.02031,0 0.73044,0.18261 1.282,0.86249 2.0203,1.01015 0.99054,0.19811 2.02031,0 3.03046,0 2.35702,0 4.71405,0 7.07107,0 3.70389,0 7.40779,0 11.11168,0 1.01015,0 2.0203,0 3.03046,0 1.01015,0 2.03992,0.19811 3.03045,0 0.73831,-0.14766 1.28987,-0.82754 2.02031,-1.01015 0.65333,-0.16333 1.36698,0.16333 2.0203,0 0.73045,-0.18261 1.28987,-0.82754 2.02031,-1.01015 0.65333,-0.16333 1.36698,0.16333 2.0203,0 1.46089,-0.36522 2.61204,-1.54411 4.04061,-2.02031 0.31944,-0.10647 0.70899,0.15059 1.01016,0 0.85183,-0.42591 1.16847,-1.59438 2.0203,-2.0203 0.30117,-0.15059 0.70898,0.15058 1.01015,0 0.85184,-0.42592 1.22788,-1.49202 2.02031,-2.02031 0.62647,-0.41764 1.34687,-0.67343 2.0203,-1.01015 0.67344,-0.67343 1.2584,-1.44887 2.02031,-2.0203 0.60234,-0.45176 1.48791,-0.47776 2.0203,-1.01016 0.5324,-0.53239 0.40782,-1.56855 1.01016,-2.0203 0.85183,-0.63888 2.17862,-0.37128 3.03045,-1.01015 0.14864,-0.11148 1.75846,-3.69149 2.02031,-4.04061 4.3692,-4.36921 0.15832,0.2676 3.03046,-4.04061 0.26414,-0.39622 0.79719,-0.58424 1.01015,-1.01016 2.36242,-0.5257 0.6162,-2.85875 1.01015,-4.04061 0.47619,-1.42857 1.34687,-2.69374 2.02031,-4.04061 0.33671,-0.67343 0.82754,-1.28986 1.01015,-2.0203 0.16333,-0.65333 -0.21296,-1.38143 0,-2.02031 0.15058,-0.45175 0.74601,-0.61393 1.01015,-1.01015 0.41765,-0.62647 0.67344,-1.34687 1.01015,-2.0203 0.33672,-0.67344 0.82755,-1.28987 1.01016,-2.02031 0.43847,-1.75387 -0.43847,-4.30704 0,-6.06091 0.18261,-0.73045 0.77205,-1.30602 1.01015,-2.02031 0.10648,-0.31944 0,-0.67343 0,-1.01015 0,-0.67344 0,-1.34687 0,-2.02031 0,-1.68359 0,-3.36717 0,-5.05076 0,-0.56382 0.15414,-4.58835 0,-5.05076 -0.15058,-0.45176 -0.85957,-0.5584 -1.01015,-1.01016 -0.21296,-0.63887 0,-1.34687 0,-2.0203 0,-1.05048 0.19865,-5.26631 0,-6.06092 -0.18261,-0.73044 -0.82754,-1.28986 -1.01016,-2.0203 -0.16333,-0.65333 0.16334,-1.36698 0,-2.02031 -0.18261,-0.73044 -0.82754,-1.28986 -1.01015,-2.0203 -0.16333,-0.65333 0.21296,-1.38143 0,-2.02031 -0.15058,-0.45175 -0.85957,-0.55839 -1.01015,-1.01015 -0.42592,-1.27775 0.42592,-2.76286 0,-4.04061 -0.15058,-0.45175 -0.85957,-0.5584 -1.01015,-1.01015 -0.30305,-0.90914 0.30304,-2.12132 0,-3.03046 -0.2381,-0.71428 -0.77206,-1.30602 -1.01016,-2.0203 -0.10647,-0.31944 0.10648,-0.69072 0,-1.01016 -0.23809,-0.71428 -0.77205,-1.30602 -1.01015,-2.0203 -0.21296,-0.63888 0.30117,-1.41797 0,-2.02031 -0.21296,-0.42591 -0.79719,-0.58423 -1.01015,-1.01015 -0.15059,-0.30117 0.15058,-0.70898 0,-1.01015 -0.21296,-0.42592 -0.79719,-0.58424 -1.01015,-1.01015 -0.15059,-0.30117 0.15058,-0.70899 0,-1.01016 -0.21296,-0.42591 -0.7972,-0.58423 -1.01016,-1.01015 -0.15058,-0.30117 0.15059,-0.70898 0,-1.01015 -2.102,-4.20402 0.0697,1.07989 -2.0203,-1.01015 -0.2381,-0.2381 0.23809,-0.77206 0,-1.01016 -0.2381,-0.23809 -0.70898,0.15059 -1.01015,0 -0.85184,-0.42592 -1.1168,-1.71913 -2.02031,-2.0203 -0.63887,-0.21296 -1.38143,0.21296 -2.0203,0 -0.45176,-0.15059 -0.58424,-0.7972 -1.01016,-1.01016 -0.60233,-0.30116 -1.38142,0.21296 -2.0203,0 -0.71429,-0.23809 -1.28986,-0.82754 -2.02031,-1.01015 -0.65332,-0.16333 -1.34687,0 -2.0203,0 -0.33672,0 -0.70898,0.15059 -1.01015,0 -0.42592,-0.21296 -0.58424,-0.79719 -1.01016,-1.01015 -0.26117,-0.13059 -5.34491,0 -6.06091,0 -1.34687,0 -2.69374,0 -4.04061,0 -0.33672,0 -0.77206,-0.2381 -1.01015,0 -0.2381,0.2381 0.23809,0.77206 0,1.01015 -0.0407,0.0406 -3.66965,0 -4.04061,0 -2.79731,0 0.777,1.01015 -2.02031,1.01015"
       id="path4218"
       inkscape:connector-curvature="0"
       inkscape:export-xdpi="90.099998"
       inkscape:export-ydpi="90.099998" />
    <path
       style="fill:none;fill-rule:evenodd;stroke:#ffffff;stroke-width:5;stroke-linecap:butt;stroke-linejoin:miter;stroke-miterlimit:4;stroke-dasharray:none;stroke-opacity:1"
       d="m 662.72099,593.75295 c 1.85661,-0.83355 6.18798,5.93512 8.08122,7.07107 0.91305,0.54783 2.17862,0.37127 3.03045,1.01015 0.60234,0.45175 0.47776,1.48791 1.01016,2.0203 1.06479,1.0648 2.97581,0.95552 4.04061,2.02031 0.23809,0.23809 -0.2381,0.77206 0,1.01015 0.53239,0.5324 1.39383,0.59251 2.0203,1.01015 0.39622,0.26415 0.58424,0.7972 1.01015,1.01016 0.30117,0.15058 0.70899,-0.15059 1.01016,0 0.85183,0.42592 1.22787,1.49202 2.0203,2.0203 0.50871,2.22553 2.07808,0.53396 3.03046,1.01015 0.42592,0.21296 0.61394,0.74601 1.01015,1.01016 5.1031,3.40206 0.0234,0.008 3.03046,1.01015 2.44985,0.81662 2.69064,2.44043 5.05076,3.03046 0.65333,0.16333 1.38143,-0.21296 2.02031,0 0.45175,0.15058 0.67343,0.67343 1.01015,1.01015 0.67343,0.33672 1.28986,0.82754 2.0203,1.01015 0.65333,0.16333 1.36698,-0.16333 2.02031,0 0.73044,0.18261 1.34687,0.67344 2.0203,1.01016 1.34687,0.67343 2.61204,1.54411 4.04061,2.0203 0.31944,0.10648 0.69072,-0.10648 1.01016,0 0.71428,0.2381 1.34687,0.67344 2.0203,1.01015 0.67344,0.33672 1.39384,0.59251 2.02031,1.01016 0.39621,0.26414 0.5584,0.85956 1.01015,1.01015 0.63888,0.21296 1.41797,-0.30117 2.02031,0 0.30116,0.15058 -0.2381,0.77206 0,1.01015 0.23809,0.2381 1.01015,-0.33672 1.01015,0 0,0.33672 -0.77206,-0.23809 -1.01015,0 -0.2381,0.2381 0.23809,0.77206 0,1.01015 -0.69617,0.69617 -4.94986,2.28976 -6.06092,3.03046 -0.79243,0.52829 -1.22788,1.49202 -2.02031,2.02031 -0.5087,2.22553 -2.07807,0.53396 -3.03045,1.01015 -0.42592,0.21296 -0.61394,0.74601 -1.01016,1.01015 -0.18816,0.12544 -3.97588,1.95558 -4.04061,2.02031 -0.53239,0.53239 -0.5925,1.39383 -1.01015,2.0203 -0.28544,0.42817 -2.61251,2.82148 -3.03046,3.03046 -1.39336,0.69668 -0.90355,-1.22335 -2.0203,1.01015 -0.15059,0.30117 0.15058,0.70898 0,1.01015 -0.26975,0.53951 -2.49865,2.49865 -3.03046,3.03046 -0.53181,0.53181 -2.49095,2.76071 -3.03046,3.03046 -0.30117,0.15058 -0.70898,-0.15059 -1.01015,0 -4.20401,2.10201 1.07989,-0.0697 -1.01015,2.0203 -0.2381,0.2381 -0.77206,-0.23809 -1.01015,0 -0.5324,0.5324 -0.47776,1.48791 -1.01016,2.02031 -0.23809,0.23809 -0.67343,0 -1.01015,0 -0.33672,0.67343 -0.47775,1.48791 -1.01015,2.0203 -0.5324,0.5324 -1.39384,0.59251 -2.02031,1.01016 -0.6905,0.46033 -3.84357,3.74505 -4.04061,4.04061 -0.18677,0.28016 -0.15058,0.70898 0,1.01015 0.21296,0.42592 0.67344,0.67343 1.01016,1.01015 0.67343,0.67344 1.2584,1.44888 2.0203,2.02031 0.60234,0.45175 1.48791,0.47775 2.02031,1.01015 0.53239,0.5324 0.40781,1.56855 1.01015,2.0203 0.85183,0.63888 2.1174,0.46233 3.03046,1.01016 0.81666,0.48999 1.2584,1.44887 2.0203,2.0203 0.60234,0.45176 1.41797,0.5584 2.02031,1.01016 1.52381,1.14285 2.5168,2.89775 4.04061,4.04061 0.60234,0.45175 1.39383,0.5925 2.0203,1.01015 0.39622,0.26414 0.67344,0.67343 1.01015,1.01015 1.01016,1.01015 2.02031,2.02031 3.03046,3.03046 1.34687,1.34687 2.69374,2.69374 4.04061,4.04061 0.33672,0.33672 0.74601,0.61394 1.01015,1.01015 0.41765,0.62647 0.59251,1.39384 1.01016,2.02031 0.52828,0.79242 1.34687,1.34687 2.0203,2.0203"
       id="path4222"
       inkscape:connector-curvature="0"
       inkscape:export-xdpi="90.099998"
       inkscape:export-ydpi="90.099998" />
    <path
       style="fill:none;fill-rule:evenodd;stroke:#ffffff;stroke-width:5;stroke-linecap:butt;stroke-linejoin:miter;stroke-miterlimit:4;stroke-dasharray:none;stroke-opacity:1"
       d="m 660.59915,544.25547 c -1.34687,-0.33671 -2.69374,-0.67343 -4.04061,-1.01015 -0.33671,-0.33672 -0.55839,-0.85957 -1.01015,-1.01015 -1.27775,-0.42592 -2.73395,0.32666 -4.04061,0 -0.73044,-0.18261 -1.28986,-0.82754 -2.0203,-1.01015 -0.65333,-0.16334 -1.38143,0.21296 -2.02031,0 -0.45175,-0.15059 -0.58423,-0.7972 -1.01015,-1.01016 -0.63728,-0.31863 -4.41349,0.31864 -5.05076,0 -0.42592,-0.21295 -0.58424,-0.79719 -1.01016,-1.01015 -0.64551,-0.32275 -3.22754,0.27103 -4.04061,0 -0.71428,-0.23809 -1.30602,-0.77206 -2.0203,-1.01015 -1.0734,-0.3578 -2.96721,0.3578 -4.04061,0 -0.71429,-0.2381 -1.30602,-0.77206 -2.02031,-1.01015 -0.95831,-0.31944 -2.07214,0.31943 -3.03045,0 -0.45176,-0.15059 -0.5584,-0.85957 -1.01016,-1.01016 -1.27775,-0.42591 -2.73395,0.32667 -4.04061,0 -0.73044,-0.18261 -1.28986,-0.82754 -2.0203,-1.01015 -0.65333,-0.16333 -1.34687,0 -2.02031,0 -0.67343,-0.33672 -1.30602,-0.77206 -2.0203,-1.01015 -0.31944,-0.10648 -0.67344,0 -1.01016,0 -0.67343,0 -1.38142,0.21296 -2.0203,0 -0.45175,-0.15059 -0.5584,-0.85957 -1.01015,-1.01015 -4.02797,-1.34266 -0.0126,1.34265 -4.04061,0 -0.45176,-0.15059 -0.5584,-0.85957 -1.01016,-1.01016 -1.61118,-0.53706 -2.42942,0.53707 -4.04061,0 -0.45175,-0.15058 -0.55839,-0.85956 -1.01015,-1.01015 -0.63887,-0.21296 -1.36698,0.16333 -2.0203,0 -0.73045,-0.18261 -1.30602,-0.77206 -2.02031,-1.01015 -0.63887,-0.21296 -1.38143,0.21296 -2.0203,0 -0.71429,-0.2381 -1.30602,-0.77206 -2.02031,-1.01015 -0.63888,-0.21296 -1.41797,0.30117 -2.0203,0 -0.42592,-0.21296 -0.58424,-0.7972 -1.01016,-1.01016 -0.30117,-0.15058 -0.77205,0.2381 -1.01015,0 -0.23809,-0.23809 -0.23809,-0.77205 0,-1.01015 0.2381,-0.23809 0.70898,0.15059 1.01015,0 0.42592,-0.21296 0.74601,-0.61394 1.01016,-1.01015 0.41764,-0.62647 0.5925,-1.39384 1.01015,-2.02031 -0.10084,-2.00117 1.48791,-0.47775 2.0203,-1.01015 0.5324,-0.5324 0.59251,-1.39383 1.01016,-2.0203 0.77704,-1.16556 2.25341,-1.8649 3.03045,-3.03046 0.41765,-0.62647 0.59251,-1.39384 1.01016,-2.02031 0.52828,-0.79243 1.34687,-1.34687 2.0203,-2.0203 0.45493,-0.45493 2.87675,-2.56932 3.03046,-3.03046 0.21296,-0.63888 -0.37356,-1.45997 0,-2.0203 2.4607,-3.69105 1.47875,1.0831 3.03046,-2.02031 0.15058,-0.30117 -0.15059,-0.70898 0,-1.01015 0.42591,-0.85184 1.49202,-1.22788 2.0203,-2.02031 0.41765,-0.62647 0.67344,-1.34687 1.01015,-2.0203 0.67344,-0.67344 1.44888,-1.2584 2.02031,-2.02031 0.90351,-1.20467 1.18501,-2.78767 2.0203,-4.04061 0.26415,-0.39621 0.74601,-0.61394 1.01016,-1.01015 0.41764,-0.62647 0.5925,-1.39384 1.01015,-2.02031 0.26414,-0.39621 0.79719,-0.58423 1.01015,-1.01015 0.15059,-0.30117 -0.23809,-0.77206 0,-1.01015 0.2381,-0.2381 0.77206,0.23809 1.01016,0 0.23809,-0.2381 -0.2381,-0.77206 0,-1.01015 0.23809,-0.2381 0.77205,0.23809 1.01015,0 0.23809,-0.2381 -0.2381,-0.77206 0,-1.01016 0.23809,-0.23809 1.01015,-0.33671 1.01015,0 0,0.33672 -0.67343,0 -1.01015,0"
       id="path4224"
       inkscape:connector-curvature="0"
       inkscape:export-xdpi="90.099998"
       inkscape:export-ydpi="90.099998" />
    <path
       style="fill:none;fill-rule:evenodd;stroke:#ffffff;stroke-width:5;stroke-linecap:butt;stroke-linejoin:miter;stroke-opacity:1;stroke-miterlimit:4;stroke-dasharray:none"
       d="m 660.63976,535.1641 c 6.28616,4.71462 1.56197,1.83697 7.07107,4.04061 0.69907,0.27963 1.28986,0.82754 2.02031,1.01015 0.65333,0.16334 1.36697,-0.16333 2.0203,0 4.87797,1.2195 -0.0501,0.48005 3.03046,2.02031 0.30117,0.15058 0.67344,0 1.01015,0 0.67344,0 1.38143,-0.21296 2.02031,0 0.45175,0.15058 0.58423,0.79719 1.01015,1.01015 0.60234,0.30117 1.41797,-0.30117 2.02031,0 0.42591,0.21296 0.58423,0.7972 1.01015,1.01015 0.80812,0.40407 2.22233,-0.40406 3.03046,0 3.08052,1.54027 -1.84752,0.80082 3.03045,2.02031 0.65333,0.16333 1.38143,-0.21296 2.02031,0 0.45175,0.15058 0.61394,0.74601 1.01015,1.01015 0.62647,0.41765 1.30602,0.77206 2.02031,1.01015 0.31943,0.10648 0.67343,0 1.01015,0 0.67343,0.33672 1.30602,0.77206 2.0203,1.01016 0.31944,0.10648 0.70899,-0.15059 1.01016,0 0.42591,0.21296 0.58423,0.79719 1.01015,1.01015 0.30117,0.15058 0.70898,-0.15058 1.01015,0 0.77165,0.38582 2.34643,2.80245 3.03046,3.03046 0.63888,0.21296 1.36698,-0.16333 2.0203,0 4.87797,1.21949 -0.0501,0.48004 3.03046,2.0203 0.60234,0.30117 1.41797,-0.30117 2.02031,0 0.42591,0.21296 0.67343,0.67344 1.01015,1.01015 0.33672,0.33672 0.79719,0.58424 1.01015,1.01016 0.15059,0.30117 -0.10648,0.69071 0,1.01015 0.2381,0.71429 0.77206,1.30602 1.01015,2.02031 0.21296,0.63887 -0.30116,1.41796 0,2.0203 0.21296,0.42592 0.7972,0.58424 1.01016,1.01015 0.15058,0.30117 -0.10648,0.69072 0,1.01016 0.23809,0.71428 0.77205,1.30601 1.01015,2.0203 0.31944,0.95832 -0.245,2.05047 0,3.03046 0.18261,0.73044 0.82754,1.28986 1.01015,2.0203 0.245,0.98 -0.31944,2.07215 0,3.03046 0.47619,1.42857 1.54412,2.61204 2.02031,4.04061 0.18997,0.56993 0,2.36668 0,3.03046"
       id="path4226"
       inkscape:connector-curvature="0"
       inkscape:export-xdpi="90.099998"
       inkscape:export-ydpi="90.099998" />
    <path
       style="fill:none;fill-rule:evenodd;stroke:#ffffff;stroke-width:2;stroke-linecap:butt;stroke-linejoin:miter;stroke-opacity:1;stroke-miterlimit:4;stroke-dasharray:none"
       d="m 628.93106,432.66256 c -2.03678,-9.34662 3.36457,-1.50857 4.63998,-2.78398 0.21873,-0.21873 -0.21873,-0.70926 0,-0.928 0.21873,-0.21872 0.61866,0 0.928,0 0.22506,0 2.75414,-0.0299 2.78398,0 0.18972,0.18972 -0.18397,2.41605 0,2.78399 0.19563,0.39128 0.73236,0.53671 0.928,0.92799 0.37119,0.7424 -0.3712,2.0416 0,2.78399 0.19564,0.39128 0.78966,0.51299 0.92799,0.92799 0.19564,0.58692 0,1.23733 0,1.856 0,0.30932 -0.13833,0.65132 0,0.92799 0.19564,0.39128 0.73235,0.53671 0.92799,0.92799 0.13762,0.27524 0,4.67039 0,5.56798 0,0.30933 0.21874,0.70926 0,0.92799 -0.21872,0.21874 -0.70926,-0.21873 -0.92799,0 -0.21873,0.21874 0.21873,0.70927 0,0.92799 -0.43746,0.43746 -1.30264,-0.27667 -1.85599,0 -0.39128,0.19564 -0.53672,0.73237 -0.928,0.92801 -0.24401,0.122 -3.22671,0 -3.71198,0 -0.41793,0 -2.50156,0.1412 -2.78398,0 -2.05185,-1.02594 -0.28798,-0.57596 -0.928,-1.856 -0.19564,-0.39128 -0.78965,-0.51298 -0.92799,-0.92799 -0.19564,-0.58692 0.19564,-1.26908 0,-1.856 -0.13833,-0.415 -0.73235,-0.53671 -0.92799,-0.92799 -0.27668,-0.55335 0.27667,-1.30264 0,-1.85599 -0.19564,-0.39127 -0.73237,-0.53672 -0.928,-0.928 -0.13834,-0.27667 0,-0.61865 0,-0.92799 0,-0.30933 0,-0.61867 0,-0.92799 0,-1.94849 -0.36265,-5.11845 2.78398,-5.56798 1.53112,-0.21872 2.61833,1.69033 3.71198,2.78399 0.21874,0.21873 0,0.61866 0,0.92799 0,0.30934 0,0.61867 0,0.928 0,2.47465 0,4.9493 0,7.42396 0,0.30933 0.21874,0.70926 0,0.928 -0.21872,0.21872 -0.65132,-0.13834 -0.92799,0 -0.2416,0.12079 -1.13055,1.65343 -1.85599,0.92799 -0.21873,-0.21873 0.13834,-0.65132 0,-0.92799 -0.19564,-0.39128 -0.61866,-0.61867 -0.928,-0.928 0,-0.61866 0.15006,-1.2558 0,-1.85599 -0.33551,-1.34207 -1.41852,-2.3996 -1.85598,-3.71198 -0.0978,-0.29346 0,-0.61867 0,-0.92799 0,-0.61867 -0.19564,-1.26908 0,-1.856 1.21676,-3.65032 2.23728,-4.49755 5.56796,-6.49596 0.73849,-0.44309 1.59594,0.40789 1.856,0.928 0.13833,0.27667 -0.13835,0.65132 0,0.92799 0.39128,0.78255 1.57931,1.02597 1.85598,1.85599 0.14149,0.42446 -0.20646,3.29904 0,3.71198 0.19564,0.39128 0.73236,0.53672 0.928,0.928 0.0952,0.19036 0.13087,2.65311 0,2.78398 -0.21873,0.21873 -0.70926,-0.21873 -0.928,0 -1.92005,1.92006 2.9341,-0.0751 -0.92799,1.85599 -0.7424,0.3712 -2.04159,-0.3712 -2.78399,0 -0.27667,0.13833 0.27668,0.78966 0,0.92799 -0.55335,0.27668 -1.23733,0 -1.85598,0 -0.30934,0 -0.70927,0.21874 -0.928,0 -0.21873,-0.21872 0.13834,-0.65131 0,-0.92799 -0.19564,-0.39128 -0.61866,-0.61867 -0.928,-0.92799 0,-0.61867 0.19564,-1.26908 0,-1.856 -0.13833,-0.415 -0.68533,-0.564 -0.92799,-0.92799 -1.30769,-1.96154 -1.62804,-4.79194 0.92799,-6.49597 1.02953,-0.68634 2.47465,0 3.71198,0 0.22507,0 2.75414,-0.0299 2.78399,0 0.21873,0.21874 -0.13833,0.65133 0,0.928 0.39128,0.78255 1.57932,1.02596 1.85599,1.85599 0.19563,0.58692 -0.19564,1.26908 0,1.85599 0.13834,0.41501 0.78965,0.51298 0.928,0.928 0.19564,0.58691 -0.19564,1.26907 0,1.85598 0.13833,0.41502 0.73235,0.53673 0.92799,0.928 0.13834,0.27667 -0.13833,0.65132 0,0.928 0.19564,0.39128 0.73235,0.53671 0.92799,0.92799 0.13834,0.27668 0,0.61866 0,0.92799 0,0.30934 0.13834,0.65133 0,0.928 -0.19564,0.39128 -0.61866,0.61866 -0.92799,0.928 -0.30933,0.30933 -0.56401,0.68533 -0.92799,0.92799 -0.57552,0.38368 -1.28048,0.54432 -1.856,0.92799 -0.36398,0.24267 -0.53671,0.73237 -0.92799,0.92801 -0.27668,0.13833 -0.70927,-0.21874 -0.92799,0 -0.21874,0.21872 0.21872,0.70925 0,0.92799 -0.21874,0.21872 -0.70927,0.21872 -0.928,0 -0.21873,-0.21874 0.21873,-0.70927 0,-0.92799 -0.21873,-0.21874 -0.78966,0.27666 -0.928,0 -0.27667,-0.55335 0.19564,-1.26908 0,-1.856 -0.13833,-0.41501 -0.78965,-0.51298 -0.92799,-0.92799 -0.19564,-0.58692 0.19564,-1.26908 0,-1.856 -0.13833,-0.415 -0.78966,-0.51298 -0.92799,-0.92799 -0.19564,-0.58692 0.15004,-1.2558 0,-1.85599 -0.16776,-0.67104 -0.70927,-1.19979 -0.928,-1.85599 -0.19564,-0.58692 0.10171,-1.24574 0,-1.85599 -0.25931,-1.55582 -1.87437,-3.37814 -0.928,-4.63998 0.76525,-1.02032 2.45393,0.71833 3.71198,0.928 0.50417,0.084 4.23884,-0.20057 4.63998,0 0.39127,0.19564 0.73236,0.53672 0.928,0.928 0.18397,0.36793 -0.18972,2.59426 0,2.78398 0.21872,0.21873 0.70926,-0.21873 0.92799,0 0.13087,0.13087 0.0952,2.59363 0,2.78398 -0.87052,1.74105 -1.19048,0.39683 -2.78399,0.928 -0.41501,0.13834 -0.51298,0.78966 -0.92799,0.928 -0.49889,0.1663 -2.92629,0 -3.71198,0 -0.30934,0 -0.70927,0.21872 -0.92799,0 -0.21874,-0.21874 0,-0.61867 0,-0.928 0,-0.51797 0.1416,-4.21518 0,-4.63998 -0.43746,-1.31238 -2.83419,-2.73378 -1.856,-3.71198 0.9782,-0.97819 2.35548,1.5847 3.71198,1.856 0.42897,0.0858 0.51299,-0.78966 0.928,-0.928 0.58691,-0.19563 1.23733,0 1.85599,0 0.30933,0 0.65132,-0.13834 0.92799,0 0.39128,0.19564 0.78966,0.51298 0.928,0.928 0.19563,0.58691 0,1.23732 0,1.85598 0,0.30934 -0.13834,0.65133 0,0.928 3.07777,3.07777 -0.43746,-0.87492 0.928,1.85599 0.19564,0.39128 0.73235,0.53671 0.92799,0.92799 0.13834,0.27668 0,0.61867 0,0.928 0,0.30933 0.21873,0.70926 0,0.928 -0.21873,0.21872 -0.65132,-0.13834 -0.92799,0 -0.39128,0.19564 -0.53673,0.73235 -0.928,0.92799 -0.19035,0.0952 -2.65311,0.13087 -2.78398,0 -0.21874,-0.21873 0.0978,-0.63453 0,-0.92799 -0.21874,-0.6562 -0.76024,-1.18495 -0.928,-1.856 -0.22507,-0.90028 0,-1.85598 0,-2.78398 0,-0.30933 0,-0.61866 0,-0.928 0,-0.30933 -0.21873,-0.70926 0,-0.92799 0.21873,-0.21873 0.70926,-0.21873 0.928,0 0.21872,0.21873 -0.0978,0.63453 0,0.92799 2.24061,6.72186 -0.26755,-1.46308 1.85598,2.78399 0.13834,0.27668 0,0.61866 0,0.92799 0,0.30934 0,0.61867 0,0.928 0,0.30933 0.21874,0.70926 0,0.928 -0.21872,0.21872 -0.61866,0 -0.92799,0 -0.30934,0 -0.78966,0.27667 -0.92799,0 -0.27668,-0.55335 0.15004,-1.2558 0,-1.856 -0.16776,-0.67103 -0.70927,-1.1998 -0.928,-1.85598 -0.0978,-0.29346 0,-0.61867 0,-0.928 0,-2.29345 -0.43746,-1.41853 0.928,-2.78398 0.30933,-0.30934 0.53671,-0.73236 0.92799,-0.928 0.10358,-0.0518 4.5364,-0.0518 4.63997,0 2.05186,1.02593 0.28799,0.57596 0.928,1.85599 0.19564,0.39128 0.73236,0.53671 0.928,0.92799 0.20647,0.41294 -0.14149,3.28753 0,3.71198 0.0906,0.27181 1.67478,1.1092 0.92799,1.856 -0.21873,0.21872 -0.65132,-0.13834 -0.92799,0 -0.78256,0.39128 -1.07344,1.4647 -1.856,1.85598 -0.27667,0.13835 -0.65132,-0.13833 -0.92799,0 -0.39128,0.19564 -0.53671,0.73237 -0.92799,0.928 -0.24401,0.12201 -3.22672,0 -3.71198,0 -0.30934,0 -0.70927,0.21873 -0.928,0 -0.21873,-0.21873 0.13834,-0.65132 0,-0.928 -2.12354,-4.24706 0.38463,3.93788 -1.85599,-2.78398 -0.25926,-0.77778 0.3075,-3.09697 0,-3.71198 -0.80664,-1.61328 -3.13772,-2.8713 -2.78399,-4.63998 0.24267,-1.21329 2.49149,0.20342 3.71198,0 0.68228,-0.11371 1.18496,-0.76023 1.856,-0.92799 0.60019,-0.15005 1.23732,0 1.85598,0 0.61867,0 1.26908,-0.19564 1.856,0 0.65618,0.21873 1.36689,0.43889 1.85598,0.92799 1.92006,1.92006 -2.9341,-0.075 0.928,1.856 0.27668,0.13833 0.78965,-0.27668 0.928,0 0.415,0.83001 0,1.85598 0,2.78398 0,0.64546 0.16779,4.30438 0,4.63998 -0.19564,0.39128 -0.61867,0.61866 -0.928,0.92799 -0.30933,0.30934 -0.53672,0.73235 -0.928,0.92799 -0.12674,0.0634 -5.44122,0.0634 -5.56796,0 -0.39128,-0.19564 -0.78966,-0.51298 -0.928,-0.92799 -0.19564,-0.58692 0,-1.23733 0,-1.85599 -0.61866,-0.61866 -1.46471,-1.07343 -1.85599,-1.85599 -0.27668,-0.55335 0.2437,-1.28735 0,-1.85599 -0.71051,-1.65786 -3.22145,-2.89013 -2.78399,-4.63998 0.80832,-3.23327 5.12161,-2.78398 7.42396,-2.78398 0.30934,0 0.65133,-0.13834 0.928,0 0.78255,0.39128 1.07344,1.46471 1.85599,1.85599 2.47465,0 -0.30933,-0.30933 0.92799,0.92799 0.21874,0.21874 0.70927,-0.21872 0.928,0 0.21873,0.21874 0,0.61867 0,0.928 0,1.23732 0,2.47465 0,3.71198 0,0.30933 0,0.61866 0,0.928 0,0.30932 0.21873,0.70926 0,0.92799 -0.4891,0.4891 -1.28047,0.54432 -1.85599,0.92799 -1.69798,1.132 -0.0926,1.18315 -2.78399,1.856 -0.90028,0.22507 -1.90361,-0.29346 -2.78398,0 -0.93651,0.31216 -2.24894,1.46304 -2.78398,0.92799 -0.21874,-0.21873 0.13833,-0.65132 0,-0.92799 -0.19564,-0.39128 -0.78966,-0.51299 -0.928,-0.928 -0.31759,-0.95277 0.17662,-3.58027 0,-4.63998 -0.20967,-1.25805 -1.74449,-2.73218 -0.928,-3.71198 1.25245,-1.50293 3.73615,-1.16905 5.56798,-1.85598 2.4234,-0.90878 1.63467,-1.35511 4.63997,-1.856 0.91537,-0.15256 1.90361,0.29346 2.78399,0 0.29346,-0.0978 -0.21874,-0.70926 0,-0.92799 0.21872,-0.21873 0.70926,-0.21873 0.92799,0 0.43746,0.43746 -0.43746,1.41853 0,1.85599 0.4891,0.48909 1.47231,0.35248 1.85599,0.928 1.85599,2.78398 -0.928,0.92799 0,2.78398 0.19564,0.39128 0.73236,0.53672 0.928,0.928 0.13833,0.27667 0,0.61866 0,0.92799 0,0.61866 0,1.23733 0,1.85599 0,0.30933 0.0978,0.63454 0,0.928 -0.21874,0.65618 -0.54432,1.28047 -0.928,1.85598 -0.26223,0.39335 -2.40003,2.59201 -2.78398,2.78399 -0.28242,0.14121 -2.36606,0 -2.78399,0 -0.41793,0 -2.50156,0.14121 -2.78399,0 -0.39127,-0.19564 -0.61866,-0.61867 -0.92799,-0.92799 -0.30934,-0.30934 -0.61866,-0.61867 -0.92799,-0.928 -0.48856,-0.48855 -2.53618,-2.28836 -2.78399,-2.78398 -0.13833,-0.27668 0.13834,-0.65133 0,-0.928 -0.19564,-0.39127 -0.61866,-0.61866 -0.92799,-0.928 -0.61867,-1.23732 -1.23733,-2.47465 -1.856,-3.71198 z"
       id="path4228"
       inkscape:connector-curvature="0"
       inkscape:export-xdpi="90.099998"
       inkscape:export-ydpi="90.099998" />
    <path
       style="fill:none;fill-rule:evenodd;stroke:#ffffff;stroke-width:2;stroke-linecap:butt;stroke-linejoin:miter;stroke-opacity:1;stroke-miterlimit:4;stroke-dasharray:none"
       d="m 679.83266,431.11839 c 1.34687,-1.34687 2.55324,-2.85072 4.04061,-4.04061 0.74645,-0.59716 1.81844,0.60641 2.02031,1.01015 0.30117,0.60234 -0.30117,1.41797 0,2.02031 0.21296,0.42591 0.79719,0.58423 1.01015,1.01015 0.13281,0.26561 0,3.51238 0,4.04061 0,0.33672 0.2381,0.77206 0,1.01015 -0.0458,0.0458 -4.57448,0 -5.05076,0 -0.33672,0 -0.77206,0.2381 -1.01015,0 -0.2381,-0.23809 0.15058,-0.70898 0,-1.01015 -0.21296,-0.42592 -0.89466,-0.54818 -1.01016,-1.01015 -0.24499,-0.97999 0.63104,-2.24166 0,-3.03046 -0.94069,-1.17587 -2.83593,-1.1168 -4.04061,-2.02031 -0.0851,-0.0639 -0.0925,-2.93795 0,-3.03045 0.14246,-0.14246 2.82325,-0.10361 3.03046,0 0.42592,0.21296 0.91676,0.54321 1.01015,1.01015 0.26415,1.32071 -0.84138,2.98888 0,4.04061 0.86728,1.0841 2.79886,0.38928 4.04061,1.01015 0.30117,0.15059 0,0.67344 0,1.01015 0,1.68359 0,3.36718 0,5.05077 0,0.33671 0.2381,0.77205 0,1.01015 -0.23809,0.23809 -0.70898,-0.15058 -1.01015,0 -0.42592,0.21296 -0.58423,0.79719 -1.01015,1.01015 -0.16163,0.0808 -2.99005,0.0808 -3.03046,0 -0.30117,-0.60234 0.21296,-1.38143 0,-2.0203 -0.15058,-0.45176 -0.85957,-0.5584 -1.01015,-1.01016 -0.21296,-0.63887 0,-1.34687 0,-2.0203 0,-3.54367 3.26046,-4.94074 6.06091,-6.06092 0.31264,-0.12505 0.67344,0 1.01016,0 0.67343,0 1.34687,0 2.0203,0 0.37949,0 5.02555,-0.0252 5.05076,0 0.2381,0.2381 -0.15058,0.70899 0,1.01016 0.42592,0.85183 1.71914,1.11679 2.02031,2.0203 0.18102,0.54307 0,3.18537 0,4.04061 0,0.39933 0.21571,4.61935 0,5.05076 -0.70107,1.40214 -1.79739,1.01016 -3.03046,1.01016 -0.33672,0 -0.70898,-0.15059 -1.01015,0 -0.42592,0.21296 -0.58424,0.79719 -1.01015,1.01015 -0.15018,0.0751 -3.8188,0.0739 -4.04061,0 -0.71429,-0.2381 -1.48791,-0.47776 -2.02031,-1.01015 -0.23809,-0.2381 0.2381,-0.77206 0,-1.01016 -0.5324,-0.53239 -1.48791,-0.47775 -2.0203,-1.01015 -0.2381,-0.23809 0.23809,-0.77206 0,-1.01015 -0.5324,-0.5324 -1.60266,-0.38368 -2.02031,-1.01015 -0.37355,-0.56033 0.37356,-1.45998 0,-2.02031 -0.41765,-0.62647 -2.16797,-0.27185 -2.0203,-1.01015 0.33017,-1.65089 3.43878,-2.40729 3.03045,-4.04061 -0.32666,-1.30666 -2.73395,0.32666 -4.04061,0 -0.32666,-0.0817 0,-0.67344 0,-1.01015 0,-0.33672 -0.32666,-1.09182 0,-1.01016 1.46089,0.36523 2.54639,2.20709 4.04061,2.02031 1.67059,-0.20882 2.59695,-2.16426 4.04061,-3.03046 0.28874,-0.17324 0.67344,0 1.01016,0 0.33671,0 0.67343,0 1.01015,0 0.33672,0 0.70898,-0.15058 1.01015,0 0.42592,0.21296 0.67344,0.67344 1.01015,1.01015 0.33672,0.33672 0.7972,0.58424 1.01016,1.01016 0.0564,0.11275 0.0564,4.93801 0,5.05076 -0.21296,0.42592 -0.61394,0.74601 -1.01016,1.01015 -0.62647,0.41765 -1.34687,0.67344 -2.0203,1.01015 -0.67344,0.33672 -1.28986,0.82755 -2.02031,1.01016 -0.65332,0.16333 -1.36697,-0.16333 -2.0203,0 -0.73044,0.18261 -1.30602,0.77205 -2.02031,1.01015 -0.31944,0.10648 -0.67343,0 -1.01015,0 -0.67343,0 -1.38143,-0.21296 -2.0203,0 -0.45176,0.15058 -0.58424,0.79719 -1.01016,1.01015 -0.30117,0.15059 -0.67343,0 -1.01015,0 -0.33672,0 -0.77206,0.2381 -1.01015,0 -0.2381,-0.23809 0.23809,-0.77206 0,-1.01015 -0.2381,-0.2381 -0.70899,0.15058 -1.01015,0 -0.42592,-0.21296 -0.58424,-0.79719 -1.01016,-1.01015 -1.39336,-0.69668 -0.90355,1.22335 -2.0203,-1.01016 -0.10367,-0.20733 -0.1,-4.75077 0,-5.05076 0.35049,-1.05148 1.02964,-2.37002 2.0203,-3.03046 0.62647,-0.41764 1.39384,-0.5925 2.02031,-1.01015 0.39621,-0.26414 0.58423,-0.79719 1.01015,-1.01015 0.30117,-0.15059 0.70898,0.15058 1.01015,0 0.42592,-0.21296 0.58424,-0.79719 1.01016,-1.01015 0.30116,-0.15059 0.67343,0 1.01015,0 0.33672,0 0.77206,-0.2381 1.01015,0 0.2381,0.23809 -0.066,0.67997 0,1.01015 0.27227,1.36136 0.20321,2.91089 1.01015,4.04061 0.97857,1.36999 2.85014,1.83998 4.04061,3.03046 0.0458,0.0458 0,4.57447 0,5.05076 0,0.33672 0.2381,0.77206 0,1.01015 -0.23809,0.2381 -0.70898,-0.15058 -1.01015,0 -0.85183,0.42592 -1.16847,1.59439 -2.0203,2.02031 -0.60234,0.30117 -1.54412,-0.47619 -2.02031,0 -0.23809,0.23809 0.2381,0.77205 0,1.01015 -0.23809,0.2381 -0.67343,0 -1.01015,0 -0.24499,0 -2.99797,0.0325 -3.03046,0 -0.23809,-0.2381 0.2381,-0.77206 0,-1.01015 -1.34687,-1.34687 -0.9693,2.14285 -2.0203,-1.01016 -0.21296,-0.63887 0.21295,-1.38142 0,-2.0203 -0.15059,-0.45175 -0.74601,-0.61394 -1.01016,-1.01015 -0.41764,-0.62647 -0.77205,-1.30602 -1.01015,-2.02031 -0.21296,-0.63887 0,-1.34687 0,-2.0203 0,-0.67344 0,-1.34687 0,-2.02031 0,-0.33672 -0.15058,-0.70898 0,-1.01015 0.9476,-1.89519 1.29587,-0.43196 3.03046,-1.01015 4.72892,-1.57631 -8.71022,-3.91356 6.06091,1.01015 1.31708,0.43903 2.75159,0.49454 4.04061,1.01015 0.44213,0.17685 0.67344,0.67344 1.01016,1.01015 0.33671,0.33672 0.79719,0.58424 1.01015,1.01016 0.043,0.0861 0.043,3.9545 0,4.04061 -0.21296,0.42591 -0.74601,0.61394 -1.01015,1.01015 -0.41765,0.62647 -0.47776,1.48791 -1.01016,2.0203 -0.23809,0.2381 -0.69071,-0.10647 -1.01015,0 -0.71429,0.2381 -1.39383,0.59251 -2.0203,1.01016 -0.79243,0.52828 -1.1168,1.71913 -2.02031,2.0203 -0.95831,0.31944 -2.0203,0 -3.03046,0 -0.33671,0 -0.77205,0.2381 -1.01015,0 -2.55155,-2.55154 -0.38816,-1.16449 -1.01015,-3.03046 -0.47619,-1.42857 -1.54412,-2.61203 -2.02031,-4.04061 -0.10648,-0.31943 0.10648,-0.69071 0,-1.01015 -0.23809,-0.71428 -0.77205,-1.30602 -1.01015,-2.0203 -0.10648,-0.31944 0,-0.67344 0,-1.01016 0,-0.67343 0,-1.34687 0,-2.0203 0,-1.24398 -0.15058,-1.86972 1.01015,-3.03046 3.94236,-3.94236 0.5425,0.23383 3.03046,-1.01015 0.42592,-0.21296 0.58424,-0.79719 1.01015,-1.01015 0.30117,-0.15059 0.67344,0 1.01016,0 0.33671,0 0.70898,-0.15059 1.01015,0 0.42592,0.21296 0.58423,0.79719 1.01015,1.01015 0.30117,0.15058 0.92849,-0.32666 1.01015,0 0.32667,1.30666 -0.60234,2.83593 0,4.04061 0.85184,1.70367 2.69374,2.69374 4.04061,4.04061 0.33672,0.33672 0.7972,0.58423 1.01016,1.01015 0.15058,0.30117 0,0.67344 0,1.01015 0,0.33672 0.15058,0.70899 0,1.01016 -0.88919,1.77837 -1.37847,0.59715 -3.03046,1.01015 -0.73044,0.18261 -1.30602,0.77206 -2.02031,1.01015 -0.63887,0.21296 -1.34687,0 -2.0203,0 -0.67344,0 -1.34687,0 -2.02031,0 -0.33671,0 -0.70898,0.15059 -1.01015,0 -2.2335,-1.11675 -0.31347,-0.62694 -1.01015,-2.0203 -0.21296,-0.42592 -0.67344,-0.67344 -1.01015,-1.01016 0,-0.67343 0.16333,-1.36697 0,-2.0203 -0.18262,-0.73044 -0.77206,-1.30602 -1.01016,-2.02031 -0.38036,-1.14108 0.69993,-2.09979 1.01016,-3.03045 0.10647,-0.31944 -0.2381,-0.77206 0,-1.01016 2.93004,-2.93004 4.51019,0.73987 7.07106,2.02031 1.24176,0.62088 2.79886,0.38928 4.04061,1.01015 0.30117,0.15059 -0.15058,0.70899 0,1.01015 0.21296,0.42592 0.7972,0.58424 1.01016,1.01016 0.15058,0.30117 0,0.67343 0,1.01015 0,0.33672 0,0.67343 0,1.01015 0,0.33672 0,0.67344 0,1.01015 0,0.33672 0.15058,0.70899 0,1.01016 -0.20898,0.41795 -2.6023,2.74501 -3.03046,3.03045 -0.62647,0.41765 -1.30602,0.77206 -2.02031,1.01016 -0.50139,0.16713 -2.94443,0.086 -3.03045,0 -0.2381,-0.2381 0.10647,-0.69072 0,-1.01016 -0.2381,-0.71428 -0.59251,-1.39383 -1.01016,-2.0203 -0.61304,-0.91956 -2.58279,-2.13512 -3.03045,-3.03046 -0.15059,-0.30117 0,-0.67343 0,-1.01015 0,-0.33672 0,-0.67344 0,-1.01015 0,-0.33672 -0.2381,-0.77206 0,-1.01016 0.23809,-0.23809 0.70898,0.15059 1.01015,0 0.85183,-0.42591 1.08642,-1.83352 2.0203,-2.0203 1.32072,-0.26414 2.70414,0.16706 4.04061,0 1.3776,-0.1722 2.65229,-1.01015 4.04061,-1.01015 1.77231,0 0.66191,2.33396 1.01016,3.03045 0.21295,0.42592 0.79719,0.58424 1.01015,1.01016 0.15058,0.30117 0,0.67343 0,1.01015 0,0.33672 0.15058,0.70898 0,1.01015 -0.21296,0.42592 -0.7972,0.58424 -1.01015,1.01015 -0.53875,1.0775 1,1.35026 -1.01016,2.02031 -0.55863,0.18621 -5.04364,0 -6.06091,0 -0.33672,0 -0.77206,0.23809 -1.01015,0 -0.2381,-0.2381 0.23809,-0.77206 0,-1.01015 -0.2381,-0.2381 -0.70899,0.15058 -1.01016,0 -0.26299,-0.1315 -1.70683,-1.32363 -1.01015,-2.02031 0.2381,-0.23809 0.67344,0 1.01015,0 1.68359,0 3.36718,0 5.05077,0 0.33671,0 0.77205,-0.23809 1.01015,0 0.23809,0.2381 0,0.67344 0,1.01015 0,0.45493 0.15371,2.72304 0,3.03046 -1.11675,2.23351 -0.62695,0.31347 -2.02031,1.01015 -0.42591,0.21296 -0.58423,0.7972 -1.01015,1.01016 -0.30117,0.15058 -0.77206,0.23809 -1.01015,0 -0.2381,-0.2381 0,-0.67344 0,-1.01016 0,-0.62594 -0.15803,-5.74485 0,-6.06091 0.15058,-0.30117 0.70898,0.15058 1.01015,0 2.4965,-1.24825 -0.34868,-1.01015 2.02031,-1.01015 2.69374,0 -0.33672,-0.33672 1.01015,1.01015 0.23809,0.23809 0.77206,-0.2381 1.01015,0 0.2381,0.23809 -0.15058,0.70898 0,1.01015 0.21296,0.42592 0.79719,0.58424 1.01015,1.01015 0.15372,0.30743 0,2.57553 0,3.03046 0,0.33672 0,0.67344 0,1.01015 0,0.33672 0.2381,0.77206 0,1.01016 -2.09004,2.09004 0.0817,-3.19386 -2.0203,1.01015 -0.69668,1.39336 1.22335,0.90355 -1.01015,2.0203 -0.30117,0.15059 -0.67344,0 -1.01016,0 -0.33671,0 -0.85956,0.30117 -1.01015,0 -0.30117,-0.60233 0.21296,-1.38142 0,-2.0203 -0.15058,-0.45175 -0.85957,-0.5584 -1.01015,-1.01015 -0.21296,-0.63888 0,-1.34687 0,-2.02031 0,-0.67343 0,-1.34687 0,-2.0203 0,-1.99601 -0.7384,-6.1515 2.0203,-7.07107 3.8118,-1.2706 3.29586,0.85037 5.05077,2.0203 0.62647,0.41765 1.39383,0.59251 2.0203,1.01016 0.39622,0.26414 0.67344,0.67343 1.01015,1.01015 0.33672,0.33672 1.01016,0.53396 1.01016,1.01015 0,0.47619 -0.7972,0.58424 -1.01016,1.01015 -1.24585,2.49171 2.82843,-0.60609 -2.0203,1.01016 -0.45176,0.15058 -0.58424,0.79719 -1.01015,1.01015 -0.26562,0.13281 -3.51238,0 -4.04061,0 -0.45493,0 -2.72304,0.15371 -3.03046,0 -4.20401,-2.10201 1.07989,0.0697 -1.01015,-2.02031 -0.2381,-0.23809 -0.77206,0.2381 -1.01016,0 -0.0325,-0.0325 0,-2.78546 0,-3.03045 0,-0.33672 -0.26937,-0.80813 0,-1.01016 1.20468,-0.9035 2.54639,-1.83352 4.04061,-2.0203 11.70189,-1.46274 2.26171,0.2414 4.04061,2.0203 0.2381,0.2381 0.85957,-0.30116 1.01016,0 0.30998,0.61998 -0.3131,4.42457 0,5.05077 0.21295,0.42591 0.79719,0.58423 1.01015,1.01015 0.15058,0.30117 0,0.67343 0,1.01015 0,0.33672 0.15058,0.70899 0,1.01015 -1.11675,2.23351 -0.62695,0.31348 -2.02031,1.01016 -0.42591,0.21296 -0.58423,0.79719 -1.01015,1.01015 -0.0861,0.0431 -3.9545,0.0431 -4.04061,0 -0.42592,-0.21296 -0.79719,-0.58423 -1.01015,-1.01015 -0.15059,-0.30117 0,-0.67344 0,-1.01016 -0.33672,-0.67343 -0.59251,-1.39383 -1.01015,-2.0203 -0.26415,-0.39621 -0.74601,-0.61394 -1.01016,-1.01015 -0.41764,-0.62647 -0.5925,-1.39384 -1.01015,-2.02031 -0.26414,-0.39621 -0.85957,-0.5584 -1.01015,-1.01015 -0.21296,-0.63888 0,-1.34687 0,-2.02031 0,-0.33671 -0.30117,-0.85956 0,-1.01015 0.60234,-0.30117 1.35603,0.11071 2.0203,0 1.36944,-0.22824 2.69374,-0.67343 4.04061,-1.01015 z"
       id="path4230"
       inkscape:connector-curvature="0"
       inkscape:export-xdpi="90.099998"
       inkscape:export-ydpi="90.099998" />
    <path
       style="fill:none;fill-rule:evenodd;stroke:#ffffff;stroke-width:3;stroke-linecap:butt;stroke-linejoin:miter;stroke-opacity:1;stroke-miterlimit:4;stroke-dasharray:none"
       d="m 655.589,470.51434 c 5.78907,-1.15781 3.5151,-0.24232 7.07107,-2.02031 0.67343,-0.33671 1.39383,-0.5925 2.0203,-1.01015 0.39622,-0.26414 0.54818,-0.89466 1.01016,-1.01015 0.97999,-0.245 2.05046,0.245 3.03046,0 0.46197,-0.11549 0.61393,-0.74601 1.01015,-1.01015 0.62647,-0.41765 1.39383,-0.59251 2.0203,-1.01016 0.39622,-0.26414 0.58424,-0.79719 1.01016,-1.01015 0.30116,-0.15058 0.67343,0 1.01015,0 0.33672,0 0.67343,0 1.01015,0"
       id="path4232"
       inkscape:connector-curvature="0"
       inkscape:export-xdpi="90.099998"
       inkscape:export-ydpi="90.099998" />
    <path
       style="fill:none;fill-rule:evenodd;stroke:#ffffff;stroke-width:5;stroke-linecap:butt;stroke-linejoin:miter;stroke-opacity:1;stroke-miterlimit:4;stroke-dasharray:none"
       d="m 657.60931,495.76815 c 0,3.03046 0,6.06092 0,9.09138 0,0.67343 -0.16333,1.36697 0,2.0203 0.18261,0.73044 0.82754,1.28986 1.01015,2.02031 0.43847,1.75387 -0.43847,4.30704 0,6.06091 0.18261,0.73044 0.77206,1.30602 1.01015,2.02031 0.10648,0.31943 0,0.67343 0,1.01015 0,1.68359 0,3.36717 0,5.05076 0,0.67344 -0.16333,1.36698 0,2.02031 0.18261,0.73044 0.77206,1.30602 1.01015,2.0203 0.10648,0.31944 0,0.67344 0,1.01015 0,0.85727 -0.18562,5.50404 0,6.06092 0.15059,0.45175 0.85957,0.5584 1.01016,1.01015 0,6.70051 -0.47619,-1.42857 1.01015,3.03046 0.45975,1.37925 -0.45975,4.68166 0,6.06091 0.15058,0.45176 0.79719,0.58424 1.01015,1.01016 0.15059,0.30117 0,0.67343 0,1.01015 0,0.67343 -0.21296,1.38143 0,2.0203 0.15059,0.45176 0.85957,0.5584 1.01015,1.01016 0.31944,0.95831 0,2.0203 0,3.03045 0,2.35703 0,4.71405 0,7.07107 0,2.35703 0,4.71405 0,7.07107 0,1.01015 0.31944,2.07214 0,3.03046 -0.15058,0.45175 -0.79719,0.58423 -1.01015,1.01015 -0.31745,0.6349 0.31745,3.40571 0,4.04061 -1.34687,2.69374 -1.01015,-3.03046 -1.01015,1.01015 0,0.7026 0.18265,4.68546 0,5.05077 -0.21296,0.42591 -0.79719,0.58423 -1.01015,1.01015 -0.15371,0.30742 0,2.57553 0,3.03046 0,2.35702 0,4.71404 0,7.07106 0,0.45493 0.15371,2.72304 0,3.03046 -1.24825,2.4965 -1.01016,-0.34868 -1.01016,2.02031 0,2.35702 0,4.71404 0,7.07106 0,0.33672 0,0.67344 0,1.01016 0,0.33671 0.33672,1.01015 0,1.01015 -0.33671,0 0,-0.67344 0,-1.01015"
       id="path4238"
       inkscape:connector-curvature="0"
       inkscape:export-xdpi="90.099998"
       inkscape:export-ydpi="90.099998" />
    <path
       style="fill:none;fill-rule:evenodd;stroke:#ffffff;stroke-width:5;stroke-linecap:butt;stroke-linejoin:miter;stroke-miterlimit:4;stroke-dasharray:none;stroke-opacity:1"
       d="m 660.63976,599.85447 c -1.90864,0.31811 -6.55205,1.43338 -9.09137,1.01016 -1.0503,-0.17505 -1.97636,-0.85957 -3.03046,-1.01016 -1.33333,-0.19047 -2.69374,0 -4.04061,0 -1.01015,0 -2.0203,0 -3.03045,0 -4.37733,0 -8.75466,0 -13.13199,0 -0.39932,0 -4.61934,0.21571 -5.05076,0 -0.42592,-0.21295 -0.58423,-0.79719 -1.01015,-1.01015 -0.30117,-0.15058 -0.67344,0 -1.01015,0 -1.01016,0 -2.02031,0 -3.03046,0 -2.35702,0 -4.71405,0 -7.07107,0 -1.68359,0 -3.36718,0 -5.05076,0 -0.33672,0 -0.77206,-0.23809 -1.01016,0 -0.23809,0.2381 -0.0817,0.68349 0,1.01015 0.25826,1.03301 0.59071,2.05176 1.01016,3.03046 0.59318,1.38409 1.46104,2.64247 2.0203,4.04061 0.79091,1.97728 1.29254,4.05954 2.02031,6.06092 0.61967,1.70411 1.40063,3.34665 2.0203,5.05076 8.24761,22.68092 -3.75966,-7.51933 5.05077,10.10153 0.62087,1.24175 0.29586,2.85013 1.01015,4.04061 0.38737,0.64562 1.48791,0.47775 2.0203,1.01015 0.85847,0.85846 1.29188,2.05921 2.02031,3.03046 0.28571,0.38095 0.74601,0.61393 1.01015,1.01015 0.41765,0.62647 0.59251,1.39383 1.01015,2.0203 1.54713,2.32069 0.577,-0.43315 3.03046,2.02031 0.2381,0.23809 -0.23809,0.77206 0,1.01015 0.5324,0.5324 1.48791,0.47776 2.02031,1.01015 0.53239,0.5324 0.5925,1.39384 1.01015,2.02031 1.54713,2.32069 0.577,-0.43316 3.03046,2.0203 0.53239,0.5324 0.5925,1.39384 1.01015,2.02031 0.26414,0.39621 0.67343,0.67343 1.01015,1.01015 0.33672,0.33672 0.58424,0.7972 1.01015,1.01015 0.30117,0.15059 0.77206,-0.23809 1.01016,0 0.23809,0.2381 -0.15059,0.70899 0,1.01016 0.21295,0.42591 0.79719,0.58423 1.01015,1.01015 0.15058,0.30117 -0.2381,0.77206 0,1.01015 0.23809,0.2381 1.01015,-0.33672 1.01015,0 0,0.42282 -1.22993,-0.26346 -2.0203,0 -5.72321,2.86161 1.50584,-0.37646 -4.04061,1.01015 -0.73045,0.18262 -1.34687,0.67344 -2.02031,1.01016 -1.01015,0.33671 -1.98634,0.80133 -3.03046,1.01015 -0.66035,0.13207 -1.34687,0 -2.0203,0 -0.67344,0.33672 -1.28986,0.82754 -2.02031,1.01015 -3.49886,0.87472 -0.60668,-1.27913 -4.04061,1.01015 -0.91955,0.61304 -2.13512,2.58279 -3.03045,3.03046 -1.34687,0.67344 -1.01016,-1.01015 -1.01016,1.01015"
       id="path4240"
       inkscape:connector-curvature="0"
       inkscape:export-xdpi="90.099998"
       inkscape:export-ydpi="90.099998" />
  </g>
</svg>
